<svg width="20" height="21" viewBox="0 0 20 21" fill="none" xmlns="http://www.w3.org/2000/svg">
<path fill-rule="evenodd" clip-rule="evenodd" d="M16.8751 9.2404H10.1479C10.1479 9.94001 10.1479 11.3392 10.1436 12.0388H14.0418C13.8925 12.7384 13.3628 13.7179 12.6145 14.2111C12.6138 14.2104 12.6131 14.2153 12.6116 14.2146C11.6167 14.8715 10.3037 15.0205 9.32881 14.8247C7.80069 14.521 6.59134 13.4129 6.10032 12.0052C6.10317 12.0031 6.10532 11.9836 6.10746 11.9822C5.80012 11.109 5.80012 9.94001 6.10746 9.2404H6.10675C6.50272 7.95452 7.74851 6.78129 9.27878 6.46017C10.5096 6.19921 11.8983 6.48185 12.9197 7.43752C13.0555 7.30459 14.7995 5.60175 14.9303 5.46323C11.4409 2.30311 5.85373 3.41478 3.7631 7.49558H3.76239C3.76239 7.49558 3.7631 7.49558 3.75882 7.50328C2.72458 9.50765 2.76747 11.8695 3.76596 13.778C3.7631 13.7801 3.76096 13.7815 3.75882 13.7836C4.66368 15.5397 6.31045 16.8864 8.29458 17.3992C10.4024 17.9519 13.0848 17.5741 14.8817 15.9489C14.8824 15.9496 14.8831 15.9503 14.8838 15.951C16.4062 14.5798 17.354 12.2438 16.8751 9.2404Z" fill="#171717"/>
</svg>
