<svg width="25" height="24" viewBox="0 0 25 24" fill="none" xmlns="http://www.w3.org/2000/svg">
<path d="M21.0095 3C21.5573 3 22.0013 3.44495 22.0013 3.9934V20.0066C22.0013 20.5552 21.546 21 21.0095 21H2.99314C2.44539 21 2.00134 20.5551 2.00134 20.0066V3.9934C2.00134 3.44476 2.45665 3 2.99314 3H21.0095ZM20.0013 5H4.00134V19H20.0013V5ZM18.0013 15V17H6.00134V15H18.0013ZM12.0013 7V13H6.00134V7H12.0013ZM18.0013 11V13H14.0013V11H18.0013ZM10.0013 9H8.00134V11H10.0013V9ZM18.0013 7V9H14.0013V7H18.0013Z" fill="#171717"/>
</svg>
