<svg width="20" height="21" viewBox="0 0 20 21" fill="none" xmlns="http://www.w3.org/2000/svg">
<path fill-rule="evenodd" clip-rule="evenodd" d="M18 17.6377H14.9231V12.0344C14.9231 10.4973 14.2715 9.63988 13.1031 9.63988C11.8315 9.63988 11.0769 10.5333 11.0769 12.0344V17.6377H8V7.23013H11.0769V8.40058C11.0769 8.40058 12.0423 6.6377 14.2177 6.6377C16.3938 6.6377 18 8.0195 18 10.8792C18 13.7381 18 17.6377 18 17.6377ZM3.50031 4.6377C2.67151 4.6377 2 3.96588 2 3.13739C2 2.30951 2.67151 1.6377 3.50031 1.6377C4.32849 1.6377 5 2.30951 5 3.13739C5.00061 3.96588 4.32849 4.6377 3.50031 4.6377ZM2 17.6377H5V7.6377H2V17.6377Z" fill="#171717"/>
</svg>
