<svg width="20" height="21" viewBox="0 0 20 21" fill="none" xmlns="http://www.w3.org/2000/svg">
<path fill-rule="evenodd" clip-rule="evenodd" d="M7.032 17.6377C13.0696 17.6377 16.372 12.2509 16.372 7.57997C16.372 7.42663 16.372 7.27415 16.3624 7.12253C17.0048 6.62288 17.5592 6.00261 18 5.29276C17.4016 5.57877 16.7656 5.76657 16.1152 5.84927C16.8 5.40733 17.3128 4.71299 17.5584 3.89372C16.9136 4.30551 16.2088 4.59582 15.4736 4.75175C14.2304 3.32859 12.1512 3.25968 10.8288 4.59841C9.9768 5.46161 9.6144 6.74865 9.8792 7.97625C7.24 7.83325 4.7808 6.49107 3.1136 4.28311C2.2424 5.89837 2.688 7.96419 4.1304 9.00141C3.608 8.98504 3.0968 8.83342 2.64 8.55947V8.60427C2.6408 10.2867 3.7424 11.7357 5.2736 12.0691C4.7904 12.2113 4.2832 12.2319 3.792 12.1294C4.2216 13.5698 5.4544 14.5562 6.8584 14.5846C5.696 15.5684 4.26 16.1025 2.7816 16.1008C2.5208 16.1 2.26 16.0836 2 16.05C3.5016 17.0872 5.248 17.6377 7.032 17.6351" fill="#171717"/>
</svg>
